<svg width="15" height="16" viewBox="0 0 15 16" fill="none" xmlns="http://www.w3.org/2000/svg">
<path d="M14.1618 1.50832C13.8148 1.16129 13.2521 1.16129 12.905 1.50832L1.17532 13.2381C0.82828 13.5851 0.82828 14.1478 1.17532 14.4948C1.34883 14.6684 1.57628 14.7552 1.80366 14.7552C2.03105 14.7552 2.25855 14.6684 2.43201 14.4948L14.1617 2.76514C14.5089 2.41804 14.5089 1.85542 14.1618 1.50832Z" fill="#D8D8D8"/>
<path d="M4.11391 0.00390625C2.31722 0.00390625 0.855469 1.46566 0.855469 3.26235C0.855469 5.05904 2.31722 6.52079 4.11391 6.52079C5.9106 6.52079 7.37235 5.05904 7.37235 3.26235C7.37235 1.46566 5.9106 0.00390625 4.11391 0.00390625ZM4.11391 4.74342C3.29724 4.74342 2.63284 4.07902 2.63284 3.26229C2.63284 2.44562 3.29724 1.78122 4.11391 1.78122C4.93058 1.78122 5.59504 2.44562 5.59504 3.26229C5.59498 4.07902 4.93058 4.74342 4.11391 4.74342Z" fill="#D8D8D8"/>
<path d="M11.2233 9.48291C9.4266 9.48291 7.96484 10.9447 7.96484 12.7414C7.96484 14.538 9.4266 15.9998 11.2233 15.9998C13.02 15.9998 14.4817 14.538 14.4817 12.7414C14.4817 10.9447 13.02 9.48291 11.2233 9.48291ZM11.2233 14.2224C10.4066 14.2224 9.74215 13.558 9.74215 12.7414C9.74215 11.9247 10.4066 11.2603 11.2233 11.2603C12.04 11.2603 12.7044 11.9247 12.7044 12.7414C12.7044 13.558 12.04 14.2224 11.2233 14.2224Z" fill="#D8D8D8"/>
</svg>
