<svg xmlns="http://www.w3.org/2000/svg" width="18" height="18" viewBox="0 0 18 18" fill="none">
<path fill-rule="evenodd" clip-rule="evenodd" d="M13.0303 3.46967L16.0607 6.5L13.0303 9.53033L11.9697 8.46967L13.1893 7.25H10C9.30964 7.25 8.75 7.80964 8.75 8.5V10.5H7.25V8.5C7.25 6.98121 8.48122 5.75 10 5.75H13.1893L11.9697 4.53033L13.0303 3.46967Z" fill="#000"/>
<path fill-rule="evenodd" clip-rule="evenodd" d="M2.25 6C2.25 4.48122 3.48122 3.25 5 3.25H9.5V4.75H5C4.30964 4.75 3.75 5.30964 3.75 6V12C3.75 12.6904 4.30964 13.25 5 13.25H11C11.6904 13.25 12.25 12.6904 12.25 12H13.75C13.75 13.5188 12.5188 14.75 11 14.75H5C3.48122 14.75 2.25 13.5188 2.25 12V6Z" fill="#000"/>
</svg>