<svg xmlns="http://www.w3.org/2000/svg" width="18" height="18" viewBox="0 0 18 18" fill="none">
<path fill-rule="evenodd" clip-rule="evenodd" d="M6 3.75C4.75736 3.75 3.75 4.75736 3.75 6V12.4861L5.02074 11.5184C5.41975 11.2146 5.90743 11.05 6.40896 11.05H13C14.2426 11.05 15.25 10.0426 15.25 8.8V6C15.25 4.75736 14.2426 3.75 13 3.75H6ZM2.25 6C2.25 3.92893 3.92893 2.25 6 2.25H13C15.0711 2.25 16.75 3.92893 16.75 6V8.8C16.75 10.8711 15.0711 12.55 13 12.55H6.40896C6.23575 12.55 6.06733 12.6068 5.92953 12.7118L4.62123 13.7081C3.6492 14.4483 2.25 13.7551 2.25 12.5333V6Z" fill="#000"/>
</svg>