<svg xmlns="http://www.w3.org/2000/svg" width="18" height="18" viewBox="0 0 18 18" fill="none">
<path fill-rule="evenodd" clip-rule="evenodd" d="M4.75 4.5C4.61193 4.5 4.5 4.61193 4.5 4.75V13.7812C4.5 13.9858 4.73228 14.1037 4.89746 13.9831L7.71778 11.923C8.33265 11.4739 9.16735 11.4739 9.78222 11.923L12.6025 13.9831C12.7677 14.1037 13 13.9858 13 13.7812V4.75C13 4.61193 12.8881 4.5 12.75 4.5H4.75ZM3 4.75C3 3.7835 3.7835 3 4.75 3H12.75C13.7165 3 14.5 3.7835 14.5 4.75V13.7812C14.5 15.2131 12.8741 16.039 11.7178 15.1944L8.89746 13.1343C8.80962 13.0701 8.69038 13.0701 8.60254 13.1343L5.78222 15.1944C4.62593 16.039 3 15.2131 3 13.7812V4.75Z" fill="#000"/>
</svg>