<svg xmlns="http://www.w3.org/2000/svg" width="18" height="18" viewBox="0 0 18 18" fill="none">
<path fill-rule="evenodd" clip-rule="evenodd" d="M8.90049 0.583245C7.72302 0.155253 6.7499 1.16152 6.7499 2.17989V5.49998C6.7499 5.75443 6.68401 5.91738 6.59973 6.03581C6.50907 6.1632 6.36509 6.28286 6.15119 6.3915C5.87229 6.53315 5.54028 6.626 5.18888 6.69939C4.87321 6.07133 4.22302 5.64036 3.47217 5.64036H3.32112C2.17722 5.64036 1.2499 6.56768 1.2499 7.71159V14C1.2499 15.5188 2.48111 16.75 3.9999 16.75H13.378C14.6814 16.75 15.8058 15.835 16.0707 14.5588L17.2348 8.94917C17.5891 7.24204 16.2857 5.64036 14.5422 5.64036H11.6168C11.5914 4.5511 11.4947 3.58703 11.1953 2.78821C10.8015 1.73761 10.0744 1.00994 8.90049 0.583245ZM5.39235 8.18939C5.84696 8.09871 6.36938 7.96306 6.83044 7.72889C7.19103 7.54574 7.55159 7.2853 7.82185 6.90553C8.09849 6.5168 8.2499 6.04554 8.2499 5.49998V2.17989C8.2499 2.09901 8.28715 2.03753 8.32496 2.00705C8.34233 1.99305 8.35492 1.98937 8.35979 1.98845C8.3624 1.98795 8.37012 1.98648 8.38807 1.993C9.17037 2.27736 9.5584 2.69487 9.7907 3.31466C10.0503 4.00738 10.1245 4.97777 10.1245 6.39036V7.14036H14.5422C15.3347 7.14036 15.9272 7.8684 15.7661 8.64437L14.602 14.254C14.4816 14.8341 13.9705 15.25 13.378 15.25H5.39235V8.18939ZM3.89235 15.2454C3.25234 15.1909 2.7499 14.6541 2.7499 14V7.71159C2.7499 7.39611 3.00564 7.14036 3.32112 7.14036H3.47217C3.70423 7.14036 3.89235 7.32848 3.89235 7.56054V15.2454Z" fill="#000"/>
</svg>
